# Material
mtllib Folder_Bottom.mtl
s off
# Object
o Folder_Bottom
# Vertices
v 0.356023 0.015293 0.427998
v -0.370840 0.015293 0.427998
v 0.356023 -0.015293 0.427998
v -0.370840 -0.015293 0.427998
v -0.370839 0.015293 -0.438287
v 0.356023 0.015293 -0.438288
v -0.370839 -0.015293 -0.438287
v 0.356023 -0.015293 -0.438288
v 0.356023 -0.015293 -0.005145
v 0.356023 0.015293 -0.005145
v -0.370840 -0.015293 -0.005145
v -0.370840 0.015293 -0.005145
v -0.370840 -0.015293 0.319712
v -0.370840 0.015293 0.319712
v -0.370840 -0.015293 0.211427
v -0.370840 0.015293 0.211427
v -0.370840 -0.015293 0.103141
v -0.370840 0.015293 0.103141
v 0.453190 -0.015293 0.319712
v 0.453189 -0.015293 0.211426
v 0.453190 -0.015293 0.103141
v 0.453190 0.015293 0.319712
v 0.453189 0.015293 0.211426
v 0.453190 0.015293 0.103141
# UV Coordinates
vt 0.000000 0.000000
# Vertex Normals
vn 0.0000 0.0000 1.0000
vn 0.0000 0.0000 -1.0000
vn 1.0000 0.0000 0.0000
vn 0.0000 -1.0000 0.0000
vn -1.0000 0.0000 0.0000
vn 0.0000 1.0000 0.0000
vn 0.7443 0.0000 0.6679
vn 0.7443 0.0000 -0.6679
# Faces
usemtl Material0
f 3/1/1 1/1/1 2/1/1 4/1/1
f 7/1/2 5/1/2 6/1/2 8/1/2
f 9/1/3 8/1/3 6/1/3 10/1/3
f 11/1/4 7/1/4 8/1/4 9/1/4
f 12/1/5 5/1/5 7/1/5 11/1/5
f 10/1/6 6/1/6 5/1/6 12/1/6
f 13/1/5 4/1/5 2/1/5 14/1/5
f 15/1/5 13/1/5 14/1/5 16/1/5
f 17/1/5 15/1/5 16/1/5 18/1/5
f 11/1/5 17/1/5 18/1/5 12/1/5
f 19/1/4 3/1/4 4/1/4 13/1/4
f 20/1/4 19/1/4 13/1/4 15/1/4
f 21/1/4 20/1/4 15/1/4 17/1/4
f 9/1/4 21/1/4 17/1/4 11/1/4
f 22/1/7 1/1/7 3/1/7 19/1/7
f 23/1/3 22/1/3 19/1/3 20/1/3
f 24/1/3 23/1/3 20/1/3 21/1/3
f 10/1/8 24/1/8 21/1/8 9/1/8
f 14/1/6 2/1/6 1/1/6 22/1/6
f 14/1/6 22/1/6 23/1/6 16/1/6
f 18/1/6 16/1/6 23/1/6 24/1/6
f 12/1/6 18/1/6 24/1/6 10/1/6
